<svg xmlns="http://www.w3.org/2000/svg" xmlns:xlink="http://www.w3.org/1999/xlink" width="500" zoomAndPan="magnify" viewBox="0 0 375 374.999991" height="500" preserveAspectRatio="xMidYMid meet" version="1.0"><defs><g/><clipPath id="id1"><path d="M 37.5 144.695312 L 111.75 144.695312 L 111.75 230.195312 L 37.5 230.195312 Z M 37.5 144.695312 " clip-rule="nonzero"/></clipPath></defs><g clip-path="url(#id1)"><path fill="#8d97ad" d="M 110.863281 165.515625 L 75.523438 145.101562 C 75.523438 145.097656 75.519531 145.097656 75.519531 145.097656 C 74.96875 144.78125 74.285156 144.78125 73.734375 145.101562 L 38.398438 165.515625 C 37.84375 165.832031 37.5 166.429688 37.5 167.066406 L 37.5 207.898438 C 37.5 208.539062 37.84375 209.132812 38.394531 209.449219 L 73.742188 229.871094 C 74.011719 230.027344 74.316406 230.105469 74.628906 230.105469 C 74.9375 230.105469 75.246094 230.027344 75.523438 229.867188 L 110.859375 209.453125 C 111.414062 209.132812 111.757812 208.539062 111.757812 207.898438 L 111.757812 167.066406 C 111.757812 166.429688 111.414062 165.832031 110.863281 165.515625 Z M 108.175781 190.679688 L 108.175781 206.863281 L 74.628906 226.246094 L 61.917969 218.902344 Z M 42.871094 207.898438 L 108.175781 170.175781 L 108.175781 186.484375 L 58.382812 216.863281 Z M 74.621094 169.953125 L 56.859375 158.984375 L 74.628906 148.71875 L 92.390625 158.980469 Z M 74.574219 185.449219 L 42.855469 167.078125 L 53.339844 161.019531 L 73.679688 173.582031 C 74.25 173.933594 75.007812 173.929688 75.5625 173.582031 L 95.914062 161.015625 L 106.390625 167.070312 Z M 41.082031 183.109375 L 41.082031 170.191406 L 70.996094 187.515625 L 59.863281 193.949219 Z M 56.28125 196.015625 L 41.082031 204.796875 L 41.082031 187.246094 Z M 56.28125 196.015625 " fill-opacity="1" fill-rule="nonzero"/></g><g fill="#ffffff" fill-opacity="1"><g transform="translate(126.580484, 186.003739)"><g><path d="M 2.28125 -17.71875 L 6.078125 -17.71875 L 6.078125 -10.125 L 12.90625 -17.71875 L 17.46875 -17.71875 L 10.890625 -10.375 L 17.96875 0 L 13.546875 0 L 8.359375 -7.59375 L 6.078125 -5.1875 L 6.078125 0 L 2.28125 0 Z M 2.28125 -17.71875 "/></g></g></g><g fill="#ffffff" fill-opacity="1"><g transform="translate(144.949103, 186.003739)"><g><path d="M 1.640625 -12.40625 L 5.0625 -12.40625 L 5.0625 -10.625 L 5.1875 -10.625 C 5.457031 -11 5.769531 -11.335938 6.125 -11.640625 C 6.425781 -11.890625 6.804688 -12.117188 7.265625 -12.328125 C 7.722656 -12.546875 8.253906 -12.65625 8.859375 -12.65625 L 9.109375 -12.65625 L 9.109375 -8.984375 C 9.023438 -9.003906 8.929688 -9.019531 8.828125 -9.03125 C 8.734375 -9.050781 8.613281 -9.066406 8.46875 -9.078125 C 8.320312 -9.097656 8.15625 -9.109375 7.96875 -9.109375 C 7.144531 -9.109375 6.453125 -8.8125 5.890625 -8.21875 C 5.335938 -7.632812 5.0625 -6.835938 5.0625 -5.828125 L 5.0625 0 L 1.640625 0 Z M 1.640625 -12.40625 "/></g></g></g><g fill="#ffffff" fill-opacity="1"><g transform="translate(155.221485, 186.003739)"><g><path d="M 4.8125 0.25 C 4.238281 0.25 3.71875 0.160156 3.25 -0.015625 C 2.789062 -0.191406 2.394531 -0.4375 2.0625 -0.75 C 1.726562 -1.070312 1.46875 -1.445312 1.28125 -1.875 C 1.101562 -2.3125 1.015625 -2.785156 1.015625 -3.296875 C 1.015625 -4.304688 1.335938 -5.164062 1.984375 -5.875 C 2.640625 -6.59375 3.539062 -7.054688 4.6875 -7.265625 L 8.609375 -7.96875 C 8.535156 -8.40625 8.316406 -8.789062 7.953125 -9.125 C 7.597656 -9.457031 7.097656 -9.625 6.453125 -9.625 C 6.015625 -9.625 5.625 -9.550781 5.28125 -9.40625 C 4.9375 -9.257812 4.644531 -9.09375 4.40625 -8.90625 C 4.113281 -8.707031 3.867188 -8.476562 3.671875 -8.21875 L 1.640625 -10.25 C 1.992188 -10.6875 2.425781 -11.082031 2.9375 -11.4375 C 3.375 -11.738281 3.90625 -12.015625 4.53125 -12.265625 C 5.15625 -12.523438 5.878906 -12.65625 6.703125 -12.65625 C 7.492188 -12.65625 8.210938 -12.523438 8.859375 -12.265625 C 9.515625 -12.015625 10.078125 -11.664062 10.546875 -11.21875 C 11.023438 -10.78125 11.390625 -10.257812 11.640625 -9.65625 C 11.890625 -9.0625 12.015625 -8.414062 12.015625 -7.71875 L 12.015625 0 L 8.609375 0 L 8.609375 -1.515625 L 8.484375 -1.515625 C 8.210938 -1.179688 7.898438 -0.882812 7.546875 -0.625 C 7.242188 -0.394531 6.859375 -0.191406 6.390625 -0.015625 C 5.921875 0.160156 5.394531 0.25 4.8125 0.25 Z M 5.953125 -2.53125 C 6.710938 -2.53125 7.34375 -2.785156 7.84375 -3.296875 C 8.351562 -3.816406 8.609375 -4.488281 8.609375 -5.3125 L 8.609375 -5.5625 L 5.828125 -5.0625 C 5.378906 -4.976562 5.03125 -4.828125 4.78125 -4.609375 C 4.539062 -4.390625 4.421875 -4.117188 4.421875 -3.796875 C 4.421875 -3.410156 4.546875 -3.101562 4.796875 -2.875 C 5.054688 -2.644531 5.441406 -2.53125 5.953125 -2.53125 Z M 5.953125 -2.53125 "/></g></g></g><g fill="#ffffff" fill-opacity="1"><g transform="translate(169.541985, 186.003739)"><g><path d="M 6.828125 0.25 C 5.566406 0.25 4.554688 -0.140625 3.796875 -0.921875 C 3.035156 -1.703125 2.65625 -2.828125 2.65625 -4.296875 L 2.65625 -8.984375 L 0.5 -8.984375 L 0.5 -12.15625 L 1.640625 -12.15625 C 2.566406 -12.15625 3.03125 -12.660156 3.03125 -13.671875 L 3.03125 -15.953125 L 6.078125 -15.953125 L 6.078125 -12.15625 L 8.859375 -12.15625 L 8.859375 -8.984375 L 6.078125 -8.984375 L 6.078125 -4.8125 C 6.078125 -4.238281 6.222656 -3.796875 6.515625 -3.484375 C 6.804688 -3.179688 7.207031 -3.03125 7.71875 -3.03125 C 8.09375 -3.03125 8.421875 -3.070312 8.703125 -3.15625 C 8.859375 -3.195312 8.992188 -3.242188 9.109375 -3.296875 L 9.109375 -0.125 C 8.910156 -0.0625 8.691406 0.00390625 8.453125 0.078125 C 8.253906 0.128906 8.015625 0.171875 7.734375 0.203125 C 7.453125 0.234375 7.148438 0.25 6.828125 0.25 Z M 6.828125 0.25 "/></g></g></g><g fill="#ffffff" fill-opacity="1"><g transform="translate(180.320379, 186.003739)"><g><path d="M 7.46875 0.25 C 6.550781 0.25 5.691406 0.0820312 4.890625 -0.25 C 4.097656 -0.59375 3.398438 -1.054688 2.796875 -1.640625 C 2.191406 -2.234375 1.722656 -2.914062 1.390625 -3.6875 C 1.054688 -4.46875 0.890625 -5.304688 0.890625 -6.203125 C 0.890625 -7.078125 1.054688 -7.90625 1.390625 -8.6875 C 1.722656 -9.476562 2.191406 -10.164062 2.796875 -10.75 C 3.398438 -11.34375 4.097656 -11.804688 4.890625 -12.140625 C 5.691406 -12.484375 6.550781 -12.65625 7.46875 -12.65625 C 8.375 -12.65625 9.226562 -12.484375 10.03125 -12.140625 C 10.832031 -11.804688 11.53125 -11.34375 12.125 -10.75 C 12.726562 -10.164062 13.195312 -9.476562 13.53125 -8.6875 C 13.875 -7.90625 14.046875 -7.078125 14.046875 -6.203125 C 14.046875 -5.304688 13.875 -4.46875 13.53125 -3.6875 C 13.195312 -2.914062 12.726562 -2.234375 12.125 -1.640625 C 11.53125 -1.054688 10.832031 -0.59375 10.03125 -0.25 C 9.226562 0.0820312 8.375 0.25 7.46875 0.25 Z M 7.46875 -2.90625 C 7.90625 -2.90625 8.316406 -2.988281 8.703125 -3.15625 C 9.097656 -3.332031 9.4375 -3.5625 9.71875 -3.84375 C 10.007812 -4.132812 10.234375 -4.484375 10.390625 -4.890625 C 10.546875 -5.296875 10.625 -5.734375 10.625 -6.203125 C 10.625 -6.671875 10.546875 -7.109375 10.390625 -7.515625 C 10.234375 -7.921875 10.007812 -8.265625 9.71875 -8.546875 C 9.4375 -8.835938 9.097656 -9.066406 8.703125 -9.234375 C 8.316406 -9.398438 7.90625 -9.484375 7.46875 -9.484375 C 7.03125 -9.484375 6.613281 -9.398438 6.21875 -9.234375 C 5.832031 -9.066406 5.492188 -8.835938 5.203125 -8.546875 C 4.921875 -8.265625 4.695312 -7.921875 4.53125 -7.515625 C 4.375 -7.109375 4.296875 -6.671875 4.296875 -6.203125 C 4.296875 -5.734375 4.375 -5.296875 4.53125 -4.890625 C 4.695312 -4.484375 4.921875 -4.132812 5.203125 -3.84375 C 5.492188 -3.5625 5.832031 -3.332031 6.21875 -3.15625 C 6.613281 -2.988281 7.03125 -2.90625 7.46875 -2.90625 Z M 7.46875 -2.90625 "/></g></g></g><g fill="#ffffff" fill-opacity="1"><g transform="translate(195.905909, 186.003739)"><g><path d="M 5.6875 0.25 C 4.832031 0.25 4.078125 0.132812 3.421875 -0.09375 C 2.765625 -0.332031 2.207031 -0.597656 1.75 -0.890625 C 1.207031 -1.203125 0.75 -1.582031 0.375 -2.03125 L 2.40625 -4.171875 C 2.65625 -3.898438 2.953125 -3.664062 3.296875 -3.46875 C 3.578125 -3.28125 3.921875 -3.117188 4.328125 -2.984375 C 4.734375 -2.847656 5.1875 -2.78125 5.6875 -2.78125 C 6.269531 -2.78125 6.671875 -2.863281 6.890625 -3.03125 C 7.109375 -3.207031 7.21875 -3.421875 7.21875 -3.671875 C 7.21875 -3.910156 7.0625 -4.109375 6.75 -4.265625 C 6.4375 -4.421875 6.039062 -4.578125 5.5625 -4.734375 C 5.09375 -4.890625 4.585938 -5.066406 4.046875 -5.265625 C 3.503906 -5.460938 3 -5.710938 2.53125 -6.015625 C 2.0625 -6.328125 1.671875 -6.707031 1.359375 -7.15625 C 1.046875 -7.613281 0.890625 -8.179688 0.890625 -8.859375 C 0.890625 -9.367188 1 -9.847656 1.21875 -10.296875 C 1.4375 -10.753906 1.75 -11.160156 2.15625 -11.515625 C 2.570312 -11.867188 3.085938 -12.144531 3.703125 -12.34375 C 4.316406 -12.550781 5.023438 -12.65625 5.828125 -12.65625 C 6.617188 -12.65625 7.3125 -12.550781 7.90625 -12.34375 C 8.507812 -12.144531 9.015625 -11.925781 9.421875 -11.6875 C 9.890625 -11.40625 10.289062 -11.09375 10.625 -10.75 L 8.609375 -8.609375 C 8.398438 -8.796875 8.15625 -8.960938 7.875 -9.109375 C 7.632812 -9.242188 7.34375 -9.363281 7 -9.46875 C 6.65625 -9.570312 6.265625 -9.625 5.828125 -9.625 C 5.378906 -9.625 5.054688 -9.539062 4.859375 -9.375 C 4.660156 -9.21875 4.5625 -9.046875 4.5625 -8.859375 C 4.5625 -8.617188 4.71875 -8.421875 5.03125 -8.265625 C 5.34375 -8.109375 5.734375 -7.953125 6.203125 -7.796875 C 6.671875 -7.640625 7.175781 -7.457031 7.71875 -7.25 C 8.257812 -7.050781 8.765625 -6.800781 9.234375 -6.5 C 9.710938 -6.195312 10.109375 -5.816406 10.421875 -5.359375 C 10.734375 -4.910156 10.890625 -4.347656 10.890625 -3.671875 C 10.890625 -3.128906 10.773438 -2.617188 10.546875 -2.140625 C 10.328125 -1.671875 10 -1.257812 9.5625 -0.90625 C 9.125 -0.550781 8.582031 -0.269531 7.9375 -0.0625 C 7.300781 0.144531 6.550781 0.25 5.6875 0.25 Z M 5.6875 0.25 "/></g></g></g><g fill="#8d97ad" fill-opacity="1"><g transform="translate(126.580484, 209.749791)"><g><path d="M 4.8125 -4.046875 C 5.09375 -4.003906 5.347656 -3.890625 5.578125 -3.703125 C 5.816406 -3.515625 6.003906 -3.28125 6.140625 -3 C 6.285156 -2.71875 6.359375 -2.421875 6.359375 -2.109375 C 6.359375 -1.710938 6.253906 -1.351562 6.046875 -1.03125 C 5.847656 -0.707031 5.554688 -0.453125 5.171875 -0.265625 C 4.785156 -0.0859375 4.328125 0 3.796875 0 L 0.875 0 L 0.875 -7.859375 L 3.6875 -7.859375 C 4.21875 -7.859375 4.671875 -7.769531 5.046875 -7.59375 C 5.429688 -7.414062 5.71875 -7.175781 5.90625 -6.875 C 6.09375 -6.582031 6.1875 -6.242188 6.1875 -5.859375 C 6.1875 -5.398438 6.054688 -5.015625 5.796875 -4.703125 C 5.546875 -4.398438 5.21875 -4.179688 4.8125 -4.046875 Z M 1.890625 -4.46875 L 3.625 -4.46875 C 4.101562 -4.46875 4.472656 -4.578125 4.734375 -4.796875 C 5.003906 -5.023438 5.140625 -5.335938 5.140625 -5.734375 C 5.140625 -6.140625 5.003906 -6.453125 4.734375 -6.671875 C 4.472656 -6.898438 4.09375 -7.015625 3.59375 -7.015625 L 1.890625 -7.015625 Z M 3.71875 -0.84375 C 4.226562 -0.84375 4.625 -0.960938 4.90625 -1.203125 C 5.195312 -1.441406 5.34375 -1.78125 5.34375 -2.21875 C 5.34375 -2.644531 5.191406 -2.984375 4.890625 -3.234375 C 4.585938 -3.492188 4.179688 -3.625 3.671875 -3.625 L 1.890625 -3.625 L 1.890625 -0.84375 Z M 3.71875 -0.84375 "/></g></g></g><g fill="#8d97ad" fill-opacity="1"><g transform="translate(135.632963, 209.749791)"><g><path d="M 1.890625 -0.828125 L 4.640625 -0.828125 L 4.640625 0 L 0.875 0 L 0.875 -7.859375 L 1.890625 -7.859375 Z M 1.890625 -0.828125 "/></g></g></g><g fill="#8d97ad" fill-opacity="1"><g transform="translate(142.642832, 209.749791)"><g><path d="M 4.4375 0.078125 C 3.707031 0.078125 3.039062 -0.09375 2.4375 -0.4375 C 1.832031 -0.78125 1.351562 -1.253906 1 -1.859375 C 0.65625 -2.472656 0.484375 -3.164062 0.484375 -3.9375 C 0.484375 -4.707031 0.65625 -5.394531 1 -6 C 1.351562 -6.613281 1.832031 -7.09375 2.4375 -7.4375 C 3.039062 -7.78125 3.707031 -7.953125 4.4375 -7.953125 C 5.175781 -7.953125 5.84375 -7.78125 6.4375 -7.4375 C 7.039062 -7.09375 7.515625 -6.613281 7.859375 -6 C 8.203125 -5.394531 8.375 -4.707031 8.375 -3.9375 C 8.375 -3.164062 8.203125 -2.472656 7.859375 -1.859375 C 7.515625 -1.253906 7.039062 -0.78125 6.4375 -0.4375 C 5.84375 -0.09375 5.175781 0.078125 4.4375 0.078125 Z M 4.4375 -0.8125 C 4.976562 -0.8125 5.46875 -0.9375 5.90625 -1.1875 C 6.351562 -1.445312 6.703125 -1.8125 6.953125 -2.28125 C 7.203125 -2.757812 7.328125 -3.3125 7.328125 -3.9375 C 7.328125 -4.570312 7.203125 -5.125 6.953125 -5.59375 C 6.703125 -6.0625 6.359375 -6.421875 5.921875 -6.671875 C 5.484375 -6.929688 4.988281 -7.0625 4.4375 -7.0625 C 3.875 -7.0625 3.375 -6.929688 2.9375 -6.671875 C 2.507812 -6.421875 2.164062 -6.0625 1.90625 -5.59375 C 1.65625 -5.125 1.53125 -4.570312 1.53125 -3.9375 C 1.53125 -3.3125 1.65625 -2.757812 1.90625 -2.28125 C 2.164062 -1.8125 2.515625 -1.445312 2.953125 -1.1875 C 3.390625 -0.9375 3.882812 -0.8125 4.4375 -0.8125 Z M 4.4375 -0.8125 "/></g></g></g><g fill="#8d97ad" fill-opacity="1"><g transform="translate(153.647639, 209.749791)"><g><path d="M 0.484375 -3.9375 C 0.484375 -4.707031 0.65625 -5.394531 1 -6 C 1.34375 -6.613281 1.8125 -7.09375 2.40625 -7.4375 C 3.007812 -7.789062 3.675781 -7.96875 4.40625 -7.96875 C 5.269531 -7.96875 6.019531 -7.757812 6.65625 -7.34375 C 7.289062 -6.925781 7.757812 -6.335938 8.0625 -5.578125 L 6.828125 -5.578125 C 6.609375 -6.054688 6.289062 -6.421875 5.875 -6.671875 C 5.46875 -6.929688 4.976562 -7.0625 4.40625 -7.0625 C 3.863281 -7.0625 3.375 -6.929688 2.9375 -6.671875 C 2.5 -6.421875 2.15625 -6.0625 1.90625 -5.59375 C 1.65625 -5.125 1.53125 -4.570312 1.53125 -3.9375 C 1.53125 -3.3125 1.65625 -2.765625 1.90625 -2.296875 C 2.15625 -1.828125 2.5 -1.460938 2.9375 -1.203125 C 3.375 -0.953125 3.863281 -0.828125 4.40625 -0.828125 C 4.976562 -0.828125 5.46875 -0.953125 5.875 -1.203125 C 6.289062 -1.453125 6.609375 -1.816406 6.828125 -2.296875 L 8.0625 -2.296875 C 7.757812 -1.535156 7.289062 -0.953125 6.65625 -0.546875 C 6.019531 -0.140625 5.269531 0.0625 4.40625 0.0625 C 3.675781 0.0625 3.007812 -0.101562 2.40625 -0.4375 C 1.8125 -0.78125 1.34375 -1.253906 1 -1.859375 C 0.65625 -2.472656 0.484375 -3.164062 0.484375 -3.9375 Z M 0.484375 -3.9375 "/></g></g></g><g fill="#8d97ad" fill-opacity="1"><g transform="translate(164.494449, 209.749791)"><g><path d="M 5.140625 0 L 1.890625 -3.59375 L 1.890625 0 L 0.875 0 L 0.875 -7.859375 L 1.890625 -7.859375 L 1.890625 -4.21875 L 5.140625 -7.859375 L 6.4375 -7.859375 L 2.875 -3.921875 L 6.46875 0 Z M 5.140625 0 "/></g></g></g><g fill="#8d97ad" fill-opacity="1"><g transform="translate(173.388942, 209.749791)"><g><path d="M 0.484375 -3.9375 C 0.484375 -4.707031 0.65625 -5.394531 1 -6 C 1.34375 -6.613281 1.8125 -7.09375 2.40625 -7.4375 C 3.007812 -7.789062 3.675781 -7.96875 4.40625 -7.96875 C 5.269531 -7.96875 6.019531 -7.757812 6.65625 -7.34375 C 7.289062 -6.925781 7.757812 -6.335938 8.0625 -5.578125 L 6.828125 -5.578125 C 6.609375 -6.054688 6.289062 -6.421875 5.875 -6.671875 C 5.46875 -6.929688 4.976562 -7.0625 4.40625 -7.0625 C 3.863281 -7.0625 3.375 -6.929688 2.9375 -6.671875 C 2.5 -6.421875 2.15625 -6.0625 1.90625 -5.59375 C 1.65625 -5.125 1.53125 -4.570312 1.53125 -3.9375 C 1.53125 -3.3125 1.65625 -2.765625 1.90625 -2.296875 C 2.15625 -1.828125 2.5 -1.460938 2.9375 -1.203125 C 3.375 -0.953125 3.863281 -0.828125 4.40625 -0.828125 C 4.976562 -0.828125 5.46875 -0.953125 5.875 -1.203125 C 6.289062 -1.453125 6.609375 -1.816406 6.828125 -2.296875 L 8.0625 -2.296875 C 7.757812 -1.535156 7.289062 -0.953125 6.65625 -0.546875 C 6.019531 -0.140625 5.269531 0.0625 4.40625 0.0625 C 3.675781 0.0625 3.007812 -0.101562 2.40625 -0.4375 C 1.8125 -0.78125 1.34375 -1.253906 1 -1.859375 C 0.65625 -2.472656 0.484375 -3.164062 0.484375 -3.9375 Z M 0.484375 -3.9375 "/></g></g></g><g fill="#8d97ad" fill-opacity="1"><g transform="translate(184.235752, 209.749791)"><g><path d="M 6.921875 -7.859375 L 6.921875 0 L 5.90625 0 L 5.90625 -3.5625 L 1.890625 -3.5625 L 1.890625 0 L 0.875 0 L 0.875 -7.859375 L 1.890625 -7.859375 L 1.890625 -4.40625 L 5.90625 -4.40625 L 5.90625 -7.859375 Z M 6.921875 -7.859375 "/></g></g></g><g fill="#8d97ad" fill-opacity="1"><g transform="translate(194.179757, 209.749791)"><g><path d="M 5.515625 -1.75 L 2.09375 -1.75 L 1.453125 0 L 0.375 0 L 3.21875 -7.8125 L 4.40625 -7.8125 L 7.234375 0 L 6.140625 0 Z M 5.21875 -2.578125 L 3.796875 -6.546875 L 2.375 -2.578125 Z M 5.21875 -2.578125 "/></g></g></g><g fill="#8d97ad" fill-opacity="1"><g transform="translate(203.920636, 209.749791)"><g><path d="M 1.890625 -7.859375 L 1.890625 0 L 0.875 0 L 0.875 -7.859375 Z M 1.890625 -7.859375 "/></g></g></g><g fill="#8d97ad" fill-opacity="1"><g transform="translate(208.831478, 209.749791)"><g><path d="M 7.046875 0 L 6.03125 0 L 1.890625 -6.265625 L 1.890625 0 L 0.875 0 L 0.875 -7.875 L 1.890625 -7.875 L 6.03125 -1.625 L 6.03125 -7.875 L 7.046875 -7.875 Z M 7.046875 0 "/></g></g></g><g fill="#8d97ad" fill-opacity="1"><g transform="translate(218.899623, 209.749791)"><g/></g></g><g fill="#8d97ad" fill-opacity="1"><g transform="translate(224.04745, 209.749791)"><g><path d="M 0.484375 -3.9375 C 0.484375 -4.707031 0.65625 -5.394531 1 -6 C 1.34375 -6.613281 1.8125 -7.09375 2.40625 -7.4375 C 3.007812 -7.789062 3.675781 -7.96875 4.40625 -7.96875 C 5.269531 -7.96875 6.019531 -7.757812 6.65625 -7.34375 C 7.289062 -6.925781 7.757812 -6.335938 8.0625 -5.578125 L 6.828125 -5.578125 C 6.609375 -6.054688 6.289062 -6.421875 5.875 -6.671875 C 5.46875 -6.929688 4.976562 -7.0625 4.40625 -7.0625 C 3.863281 -7.0625 3.375 -6.929688 2.9375 -6.671875 C 2.5 -6.421875 2.15625 -6.0625 1.90625 -5.59375 C 1.65625 -5.125 1.53125 -4.570312 1.53125 -3.9375 C 1.53125 -3.3125 1.65625 -2.765625 1.90625 -2.296875 C 2.15625 -1.828125 2.5 -1.460938 2.9375 -1.203125 C 3.375 -0.953125 3.863281 -0.828125 4.40625 -0.828125 C 4.976562 -0.828125 5.46875 -0.953125 5.875 -1.203125 C 6.289062 -1.453125 6.609375 -1.816406 6.828125 -2.296875 L 8.0625 -2.296875 C 7.757812 -1.535156 7.289062 -0.953125 6.65625 -0.546875 C 6.019531 -0.140625 5.269531 0.0625 4.40625 0.0625 C 3.675781 0.0625 3.007812 -0.101562 2.40625 -0.4375 C 1.8125 -0.78125 1.34375 -1.253906 1 -1.859375 C 0.65625 -2.472656 0.484375 -3.164062 0.484375 -3.9375 Z M 0.484375 -3.9375 "/></g></g></g><g fill="#8d97ad" fill-opacity="1"><g transform="translate(234.894263, 209.749791)"><g><path d="M 4.4375 0.078125 C 3.707031 0.078125 3.039062 -0.09375 2.4375 -0.4375 C 1.832031 -0.78125 1.351562 -1.253906 1 -1.859375 C 0.65625 -2.472656 0.484375 -3.164062 0.484375 -3.9375 C 0.484375 -4.707031 0.65625 -5.394531 1 -6 C 1.351562 -6.613281 1.832031 -7.09375 2.4375 -7.4375 C 3.039062 -7.78125 3.707031 -7.953125 4.4375 -7.953125 C 5.175781 -7.953125 5.84375 -7.78125 6.4375 -7.4375 C 7.039062 -7.09375 7.515625 -6.613281 7.859375 -6 C 8.203125 -5.394531 8.375 -4.707031 8.375 -3.9375 C 8.375 -3.164062 8.203125 -2.472656 7.859375 -1.859375 C 7.515625 -1.253906 7.039062 -0.78125 6.4375 -0.4375 C 5.84375 -0.09375 5.175781 0.078125 4.4375 0.078125 Z M 4.4375 -0.8125 C 4.976562 -0.8125 5.46875 -0.9375 5.90625 -1.1875 C 6.351562 -1.445312 6.703125 -1.8125 6.953125 -2.28125 C 7.203125 -2.757812 7.328125 -3.3125 7.328125 -3.9375 C 7.328125 -4.570312 7.203125 -5.125 6.953125 -5.59375 C 6.703125 -6.0625 6.359375 -6.421875 5.921875 -6.671875 C 5.484375 -6.929688 4.988281 -7.0625 4.4375 -7.0625 C 3.875 -7.0625 3.375 -6.929688 2.9375 -6.671875 C 2.507812 -6.421875 2.164062 -6.0625 1.90625 -5.59375 C 1.65625 -5.125 1.53125 -4.570312 1.53125 -3.9375 C 1.53125 -3.3125 1.65625 -2.757812 1.90625 -2.28125 C 2.164062 -1.8125 2.515625 -1.445312 2.953125 -1.1875 C 3.390625 -0.9375 3.882812 -0.8125 4.4375 -0.8125 Z M 4.4375 -0.8125 "/></g></g></g><g fill="#8d97ad" fill-opacity="1"><g transform="translate(245.899072, 209.749791)"><g><path d="M 8.84375 -7.8125 L 8.84375 0 L 7.8125 0 L 7.8125 -5.828125 L 5.21875 0 L 4.5 0 L 1.890625 -5.828125 L 1.890625 0 L 0.875 0 L 0.875 -7.8125 L 1.96875 -7.8125 L 4.859375 -1.359375 L 7.75 -7.8125 Z M 8.84375 -7.8125 "/></g></g></g><g fill="#8d97ad" fill-opacity="1"><g transform="translate(257.750264, 209.749791)"><g><path d="M 6.125 -5.5625 C 6.125 -4.90625 5.898438 -4.359375 5.453125 -3.921875 C 5.003906 -3.492188 4.320312 -3.28125 3.40625 -3.28125 L 1.890625 -3.28125 L 1.890625 0 L 0.875 0 L 0.875 -7.859375 L 3.40625 -7.859375 C 4.289062 -7.859375 4.960938 -7.644531 5.421875 -7.21875 C 5.890625 -6.789062 6.125 -6.238281 6.125 -5.5625 Z M 3.40625 -4.125 C 3.976562 -4.125 4.398438 -4.25 4.671875 -4.5 C 4.941406 -4.75 5.078125 -5.101562 5.078125 -5.5625 C 5.078125 -6.53125 4.519531 -7.015625 3.40625 -7.015625 L 1.890625 -7.015625 L 1.890625 -4.125 Z M 3.40625 -4.125 "/></g></g></g><g fill="#8d97ad" fill-opacity="1"><g transform="translate(266.419048, 209.749791)"><g><path d="M 5.515625 -1.75 L 2.09375 -1.75 L 1.453125 0 L 0.375 0 L 3.21875 -7.8125 L 4.40625 -7.8125 L 7.234375 0 L 6.140625 0 Z M 5.21875 -2.578125 L 3.796875 -6.546875 L 2.375 -2.578125 Z M 5.21875 -2.578125 "/></g></g></g><g fill="#8d97ad" fill-opacity="1"><g transform="translate(276.159927, 209.749791)"><g><path d="M 7.046875 0 L 6.03125 0 L 1.890625 -6.265625 L 1.890625 0 L 0.875 0 L 0.875 -7.875 L 1.890625 -7.875 L 6.03125 -1.625 L 6.03125 -7.875 L 7.046875 -7.875 Z M 7.046875 0 "/></g></g></g><g fill="#8d97ad" fill-opacity="1"><g transform="translate(286.228072, 209.749791)"><g><path d="M 6.375 -7.859375 L 3.8125 -2.96875 L 3.8125 0 L 2.78125 0 L 2.78125 -2.96875 L 0.21875 -7.859375 L 1.359375 -7.859375 L 3.296875 -3.875 L 5.234375 -7.859375 Z M 6.375 -7.859375 "/></g></g></g></svg>