<?xml version="1.0" encoding="UTF-8"?>
<svg width="700pt" height="700pt" fill='#1956c7' version="1.1" viewBox="0 0 700 700" xmlns="http://www.w3.org/2000/svg" xmlns:xlink="http://www.w3.org/1999/xlink">
 <defs>
  <symbol id="s" overflow="visible">
   <path d="m3.6562-0.21875c-0.1875 0.09375-0.38672 0.16797-0.59375 0.21875-0.19922 0.050781-0.40625 0.078125-0.625 0.078125-0.66797 0-1.1992-0.17969-1.5938-0.54688-0.38672-0.375-0.57812-0.87891-0.57812-1.5156 0-0.64453 0.19141-1.1484 0.57812-1.5156 0.39453-0.375 0.92578-0.5625 1.5938-0.5625 0.21875 0 0.42578 0.027344 0.625 0.078125 0.20703 0.054687 0.40625 0.125 0.59375 0.21875v0.82812c-0.1875-0.125-0.375-0.21875-0.5625-0.28125-0.17969-0.0625-0.37109-0.09375-0.57812-0.09375-0.36719 0-0.65625 0.12109-0.875 0.35938-0.21094 0.23047-0.3125 0.55469-0.3125 0.96875 0 0.40625 0.10156 0.73047 0.3125 0.96875 0.21875 0.23047 0.50781 0.34375 0.875 0.34375 0.20703 0 0.39844-0.023437 0.57812-0.078125 0.1875-0.0625 0.375-0.16016 0.5625-0.29688z"/>
  </symbol>
  <symbol id="d" overflow="visible">
   <path d="m2.6875-2.1719c-0.085938-0.039063-0.16797-0.070313-0.25-0.09375-0.085938-0.019531-0.16797-0.03125-0.25-0.03125-0.25 0-0.44531 0.085937-0.57812 0.25-0.125 0.15625-0.1875 0.38281-0.1875 0.67188v1.375h-0.96875v-2.9844h0.96875v0.48438c0.11328-0.19531 0.25-0.33594 0.40625-0.42188 0.16406-0.09375 0.35938-0.14062 0.57812-0.14062h0.10938c0.039063 0 0.09375 0.007812 0.15625 0.015625z"/>
  </symbol>
  <symbol id="a" overflow="visible">
   <path d="m3.4375-1.5v0.26562h-2.2344c0.03125 0.23047 0.11328 0.40234 0.25 0.51562 0.13281 0.10547 0.32812 0.15625 0.57812 0.15625 0.20703 0 0.41406-0.023438 0.625-0.078125 0.20703-0.0625 0.42188-0.15625 0.64062-0.28125v0.73438c-0.21875 0.09375-0.44531 0.16406-0.67188 0.20312-0.23047 0.039062-0.45312 0.0625-0.67188 0.0625-0.54297 0-0.96484-0.13281-1.2656-0.40625-0.30469-0.28125-0.45312-0.67188-0.45312-1.1719 0-0.47656 0.14453-0.85938 0.4375-1.1406 0.30078-0.28125 0.70703-0.42188 1.2188-0.42188 0.46875 0 0.84375 0.14062 1.125 0.42188s0.42188 0.66406 0.42188 1.1406zm-0.96875-0.32812c0-0.17578-0.058594-0.31641-0.17188-0.42188-0.10547-0.11328-0.24219-0.17188-0.40625-0.17188-0.1875 0-0.33984 0.054687-0.45312 0.15625-0.11719 0.10547-0.1875 0.25-0.21875 0.4375z"/>
  </symbol>
  <symbol id="j" overflow="visible">
   <path d="m1.7969-1.3438c-0.19922 0-0.35156 0.039062-0.45312 0.10938-0.09375 0.0625-0.14062 0.16406-0.14062 0.29688 0 0.11719 0.035156 0.21094 0.10938 0.28125 0.082031 0.0625 0.19531 0.09375 0.34375 0.09375 0.17578 0 0.32812-0.0625 0.45312-0.1875s0.1875-0.28516 0.1875-0.48438v-0.10938zm1.4688-0.35938v1.7031h-0.96875v-0.4375c-0.125 0.17969-0.27344 0.30859-0.4375 0.39062-0.15625 0.082031-0.35156 0.125-0.57812 0.125-0.3125 0-0.57031-0.085938-0.76562-0.26562-0.1875-0.1875-0.28125-0.42188-0.28125-0.70312 0-0.35156 0.11719-0.61328 0.35938-0.78125 0.23828-0.16406 0.61719-0.25 1.1406-0.25h0.5625v-0.0625c0-0.15625-0.0625-0.26562-0.1875-0.32812-0.11719-0.070312-0.29688-0.10938-0.54688-0.10938-0.21094 0-0.40234 0.023437-0.57812 0.0625-0.17969 0.042969-0.33984 0.10156-0.48438 0.17188v-0.71875c0.19531-0.050781 0.39844-0.085938 0.60938-0.10938 0.20703-0.03125 0.41406-0.046875 0.625-0.046875 0.53906 0 0.92969 0.10938 1.1719 0.32812 0.23828 0.21094 0.35938 0.55469 0.35938 1.0312z"/>
  </symbol>
  <symbol id="c" overflow="visible">
   <path d="m1.5-3.8438v0.85938h0.98438v0.67188h-0.98438v1.2812c0 0.13672 0.023438 0.23047 0.078125 0.28125 0.0625 0.042969 0.17578 0.0625 0.34375 0.0625h0.48438v0.6875h-0.8125c-0.38672 0-0.65625-0.078125-0.8125-0.23438s-0.23438-0.42188-0.23438-0.79688v-1.2812h-0.46875v-0.67188h0.46875v-0.85938z"/>
  </symbol>
  <symbol id="i" overflow="visible">
   <path d="m2.5-2.5469v-1.6094h0.95312v4.1562h-0.95312v-0.4375c-0.13672 0.17969-0.28125 0.30859-0.4375 0.39062-0.15625 0.082031-0.33984 0.125-0.54688 0.125-0.375 0-0.68359-0.14453-0.92188-0.4375-0.23047-0.28906-0.34375-0.67188-0.34375-1.1406 0-0.45703 0.11328-0.83203 0.34375-1.125 0.23828-0.28906 0.54688-0.4375 0.92188-0.4375 0.19531 0 0.375 0.042969 0.53125 0.125 0.16406 0.085938 0.31641 0.21484 0.45312 0.39062zm-0.64062 1.9375c0.20703 0 0.36328-0.070313 0.46875-0.21875 0.11328-0.15625 0.17188-0.37891 0.17188-0.67188 0-0.28125-0.058594-0.49219-0.17188-0.64062-0.10547-0.15625-0.26172-0.23438-0.46875-0.23438-0.19922 0-0.35547 0.078125-0.46875 0.23438-0.10547 0.14844-0.15625 0.35938-0.15625 0.64062 0 0.29297 0.050781 0.51562 0.15625 0.67188 0.11328 0.14844 0.26953 0.21875 0.46875 0.21875z"/>
  </symbol>
  <symbol id="h" overflow="visible">
   <path d="m2.0469-0.60938c0.20703 0 0.36328-0.070313 0.46875-0.21875 0.11328-0.15625 0.17188-0.37891 0.17188-0.67188 0-0.28125-0.058594-0.49219-0.17188-0.64062-0.10547-0.15625-0.26172-0.23438-0.46875-0.23438-0.19922 0-0.35547 0.078125-0.46875 0.23438-0.10547 0.14844-0.15625 0.35938-0.15625 0.64062 0 0.29297 0.050781 0.51562 0.15625 0.67188 0.11328 0.14844 0.26953 0.21875 0.46875 0.21875zm-0.625-1.9375c0.125-0.17578 0.26562-0.30469 0.42188-0.39062 0.16406-0.082031 0.35156-0.125 0.5625-0.125 0.36328 0 0.66406 0.14844 0.90625 0.4375 0.23828 0.29297 0.35938 0.66797 0.35938 1.125 0 0.46875-0.12109 0.85156-0.35938 1.1406-0.24219 0.29297-0.54297 0.4375-0.90625 0.4375-0.21094 0-0.39844-0.042969-0.5625-0.125-0.15625-0.082031-0.29688-0.21094-0.42188-0.39062v0.4375h-0.96875v-4.1562h0.96875z"/>
  </symbol>
  <symbol id="g" overflow="visible">
   <path d="m0.0625-2.9844h0.95312l0.8125 2.0156 0.6875-2.0156h0.95312l-1.2656 3.2656c-0.125 0.33203-0.27344 0.56641-0.4375 0.70312-0.16797 0.13281-0.39062 0.20312-0.67188 0.20312h-0.54688v-0.64062h0.29688c0.16406 0 0.28516-0.027344 0.35938-0.078125 0.070313-0.054688 0.12891-0.14062 0.17188-0.26562l0.03125-0.09375z"/>
  </symbol>
  <symbol id="b" overflow="visible">
   <path d="m1.875-2.375c-0.21094 0-0.37109 0.078125-0.48438 0.23438-0.10547 0.14844-0.15625 0.35938-0.15625 0.64062 0 0.29297 0.050781 0.51562 0.15625 0.67188 0.11328 0.14844 0.27344 0.21875 0.48438 0.21875 0.20703 0 0.36719-0.070313 0.48438-0.21875 0.11328-0.15625 0.17188-0.37891 0.17188-0.67188 0-0.28125-0.058594-0.49219-0.17188-0.64062-0.11719-0.15625-0.27734-0.23438-0.48438-0.23438zm0-0.6875c0.51953 0 0.92188 0.14062 1.2031 0.42188 0.28906 0.27344 0.4375 0.65234 0.4375 1.1406 0 0.5-0.14844 0.89062-0.4375 1.1719-0.28125 0.27344-0.68359 0.40625-1.2031 0.40625-0.51172 0-0.91406-0.13281-1.2031-0.40625-0.29297-0.28125-0.4375-0.67188-0.4375-1.1719 0-0.48828 0.14453-0.86719 0.4375-1.1406 0.28906-0.28125 0.69141-0.42188 1.2031-0.42188z"/>
  </symbol>
  <symbol id="f" overflow="visible">
   <path d="m3.2344-2.5c0.11328-0.17578 0.25391-0.3125 0.42188-0.40625 0.16406-0.10156 0.35156-0.15625 0.5625-0.15625 0.33203 0 0.58594 0.10938 0.76562 0.32812 0.1875 0.21094 0.28125 0.51172 0.28125 0.90625v1.8281h-0.96875v-1.5625c0.007813-0.019531 0.015625-0.039062 0.015625-0.0625v-0.10938c0-0.21875-0.03125-0.375-0.09375-0.46875s-0.16406-0.14062-0.29688-0.14062c-0.1875 0-0.33594 0.078125-0.4375 0.23438-0.09375 0.14844-0.14062 0.35938-0.14062 0.64062v1.4688h-0.96875v-1.5625c0-0.33203-0.03125-0.54688-0.09375-0.64062-0.054688-0.09375-0.15234-0.14062-0.29688-0.14062-0.17969 0-0.32031 0.078125-0.42188 0.23438-0.09375 0.14844-0.14062 0.35938-0.14062 0.64062v1.4688h-0.96875v-2.9844h0.96875v0.4375c0.11328-0.17578 0.24219-0.30469 0.39062-0.39062 0.15625-0.082031 0.32812-0.125 0.51562-0.125 0.20703 0 0.39062 0.054688 0.54688 0.15625 0.15625 0.09375 0.27344 0.23047 0.35938 0.40625z"/>
  </symbol>
  <symbol id="e" overflow="visible">
   <path d="m3.4688-1.8281v1.8281h-0.96875v-1.3906c0-0.25781-0.007812-0.4375-0.015625-0.53125-0.011719-0.10156-0.03125-0.17578-0.0625-0.21875-0.03125-0.0625-0.085937-0.10938-0.15625-0.14062-0.0625-0.039062-0.13281-0.0625-0.20312-0.0625-0.21094 0-0.37109 0.078125-0.48438 0.23438-0.10547 0.15625-0.15625 0.37109-0.15625 0.64062v1.4688h-0.96875v-2.9844h0.96875v0.4375c0.13281-0.17578 0.28516-0.30469 0.45312-0.39062 0.16406-0.082031 0.34375-0.125 0.53125-0.125 0.34375 0 0.60156 0.10938 0.78125 0.32812 0.1875 0.21094 0.28125 0.51172 0.28125 0.90625z"/>
  </symbol>
  <symbol id="r" overflow="visible">
   <path d="m0.45312-4.1562h0.96875v2.2656l1.0938-1.0938h1.1094l-1.4531 1.3594 1.5625 1.625h-1.1562l-1.1562-1.25v1.25h-0.96875z"/>
  </symbol>
  <symbol id="q" overflow="visible">
   <path d="m2.4219-4.1562v0.625h-0.51562c-0.13672 0-0.23438 0.027344-0.29688 0.078125-0.054687 0.054687-0.078125 0.13672-0.078125 0.25v0.21875h0.82812v0.67188h-0.82812v2.3125h-0.95312v-2.3125h-0.46875v-0.67188h0.46875v-0.21875c0-0.32031 0.085937-0.5625 0.26562-0.71875 0.1875-0.15625 0.47266-0.23438 0.85938-0.23438z"/>
  </symbol>
  <symbol id="p" overflow="visible">
   <path d="m3.4688-1.8281v1.8281h-0.96875v-1.3906c0-0.25781-0.007812-0.4375-0.015625-0.53125-0.011719-0.10156-0.03125-0.17578-0.0625-0.21875-0.03125-0.0625-0.085937-0.10938-0.15625-0.14062-0.0625-0.039062-0.13281-0.0625-0.20312-0.0625-0.21094 0-0.37109 0.078125-0.48438 0.23438-0.10547 0.15625-0.15625 0.37109-0.15625 0.64062v1.4688h-0.96875v-4.1562h0.96875v1.6094c0.13281-0.17578 0.28516-0.30469 0.45312-0.39062 0.16406-0.082031 0.34375-0.125 0.53125-0.125 0.34375 0 0.60156 0.10938 0.78125 0.32812 0.1875 0.21094 0.28125 0.51172 0.28125 0.90625z"/>
  </symbol>
  <symbol id="o" overflow="visible">
   <path d="m0.5-3.9844h1.1562l1.4375 2.7344v-2.7344h0.98438v3.9844h-1.1562l-1.4375-2.7344v2.7344h-0.98438z"/>
  </symbol>
  <symbol id="n" overflow="visible">
   <path d="m0.42188-1.1719v-1.8125h0.96875v0.29688 0.60938 0.48438c0 0.24219 0.003906 0.41797 0.015625 0.53125 0.007812 0.10547 0.03125 0.17969 0.0625 0.21875 0.039062 0.0625 0.09375 0.11719 0.15625 0.15625 0.0625 0.03125 0.13281 0.046875 0.21875 0.046875 0.19531 0 0.35156-0.078125 0.46875-0.23438 0.11328-0.15625 0.17188-0.36719 0.17188-0.64062v-1.4688h0.95312v2.9844h-0.95312v-0.4375c-0.14844 0.17969-0.30469 0.30859-0.46875 0.39062-0.15625 0.082031-0.33594 0.125-0.53125 0.125-0.34375 0-0.60938-0.10156-0.79688-0.3125-0.17969-0.21875-0.26562-0.53125-0.26562-0.9375z"/>
  </symbol>
  <symbol id="m" overflow="visible">
   <path d="m0.5-3.9844h1.7031c0.50781 0 0.89844 0.11719 1.1719 0.34375 0.26953 0.21875 0.40625 0.53906 0.40625 0.95312 0 0.41797-0.13672 0.74219-0.40625 0.96875-0.27344 0.21875-0.66406 0.32812-1.1719 0.32812h-0.67188v1.3906h-1.0312zm1.0312 0.75v1.1094h0.5625c0.19531 0 0.34766-0.046875 0.45312-0.14062 0.11328-0.10156 0.17188-0.24219 0.17188-0.42188 0-0.17578-0.058594-0.3125-0.17188-0.40625-0.10547-0.09375-0.25781-0.14062-0.45312-0.14062z"/>
  </symbol>
  <symbol id="l" overflow="visible">
   <path d="m0.45312-2.9844h0.96875v2.9375c0 0.39453-0.10156 0.69531-0.29688 0.90625-0.1875 0.21875-0.46484 0.32812-0.82812 0.32812h-0.48438v-0.64062h0.17188c0.17578 0 0.29688-0.042969 0.35938-0.125 0.070312-0.074219 0.10938-0.23047 0.10938-0.46875zm0-1.1719h0.96875v0.78125h-0.96875z"/>
  </symbol>
  <symbol id="k" overflow="visible">
   <path d="m2.875-2.8906v0.76562c-0.125-0.082031-0.25781-0.14453-0.39062-0.1875-0.13672-0.039062-0.27344-0.0625-0.40625-0.0625-0.27344 0-0.48047 0.078125-0.625 0.23438-0.14844 0.15625-0.21875 0.37109-0.21875 0.64062 0 0.28125 0.070313 0.5 0.21875 0.65625 0.14453 0.15625 0.35156 0.23438 0.625 0.23438 0.14453 0 0.28516-0.019531 0.42188-0.0625 0.13281-0.039063 0.25781-0.10938 0.375-0.20312v0.78125c-0.14844 0.0625-0.29688 0.10156-0.45312 0.125-0.15625 0.03125-0.3125 0.046875-0.46875 0.046875-0.54297 0-0.96484-0.13281-1.2656-0.40625-0.30469-0.28125-0.45312-0.67188-0.45312-1.1719 0-0.48828 0.14844-0.86719 0.45312-1.1406 0.30078-0.28125 0.72266-0.42188 1.2656-0.42188 0.15625 0 0.3125 0.015625 0.46875 0.046875 0.15625 0.023437 0.30469 0.0625 0.45312 0.125z"/>
  </symbol>
 </defs>
 <g>
  <path d="m597.19 337.8v-115.61c12.066-2.5586 22.371-10.34 28.133-21.242 5.7617-10.906 6.3828-23.805 1.6953-35.211-4.6875-11.41-14.199-20.145-25.961-23.852-11.762-3.7031-24.562-1.9922-34.941 4.6719l-82.676-82.676c5.8828-9.2227 7.8945-20.391 5.5938-31.086-2.2969-10.695-8.7188-20.051-17.871-26.043-9.1523-5.9883-20.297-8.1328-31.02-5.957-10.719 2.1719-20.152 8.4805-26.25 17.562s-8.3672 20.199-6.3203 30.945c2.043 10.746 8.2461 20.25 17.254 26.457l-37.035 89.688-62.945-63.035 65.461-27.203v0.003906c4.4609-1.8672 6.5625-6.9961 4.6992-11.457-1.8672-4.4609-6.9961-6.5664-11.457-4.6992l-72.188 29.98-24.895-24.949c5.4375-8.3945 7.6641-18.469 6.2734-28.371-1.3906-9.9062-6.3047-18.977-13.84-25.547-7.5391-6.5742-17.195-10.211-27.195-10.238-10-0.03125-19.676 3.5469-27.254 10.074-7.5742 6.5273-12.543 15.57-13.992 25.465-1.4492 9.8984 0.71875 19.984 6.1055 28.41l-82.676 82.676c-11.594-7.3984-26.098-8.582-38.738-3.1641-12.641 5.418-21.781 16.742-24.414 30.242-2.6367 13.496 1.5781 27.426 11.258 37.199 9.6758 9.7734 23.559 14.129 37.086 11.629l23.918 57.531-23.918 57.562c-13.531-2.5117-27.43 1.8359-37.113 11.609-9.6875 9.7773-13.906 23.711-11.27 37.219 2.6328 13.504 11.785 24.832 24.438 30.246 12.648 5.4141 27.16 4.2188 38.754-3.1992l82.676 82.676c-6.6641 10.379-8.375 23.18-4.6719 34.941 3.707 11.762 12.441 21.273 23.852 25.961 11.406 4.6875 24.305 4.0664 35.211-1.6953 10.902-5.7617 18.684-16.066 21.242-28.133h115.61c2.9062 13.496 12.324 24.664 25.129 29.812 12.809 5.1484 27.336 3.6016 38.773-4.125 11.438-7.7305 18.293-20.633 18.293-34.438s-6.8555-26.707-18.293-34.438c-11.438-7.7266-25.965-9.2734-38.773-4.125-12.805 5.1484-22.223 16.316-25.129 29.812h-112.38l258.88-107.58c7.8359 11.316 20.77 18.02 34.531 17.898 13.766-0.12109 26.578-7.0469 34.215-18.5s9.1094-25.941 3.9336-38.695c-5.1797-12.754-16.336-22.117-29.793-25.004zm-49.633-148.83-24.227 9.9961-50.105-120.58 80.445 80.445c-5.8438 8.8828-8.0352 19.684-6.1133 30.141zm6.6836 16.164-0.003906 0.003906c6.0156 8.707 15.113 14.801 25.453 17.051v112.38l-49.645-119.45zm9.1875 135.9-98.875-98.863 49.328-20.367zm49.074-159.48c0 6.3828-2.5352 12.504-7.0469 17.016s-10.633 7.0469-17.016 7.0469-12.504-2.5352-17.016-7.0469-7.0469-10.633-7.0469-17.016 2.5352-12.504 7.0469-17.016 10.633-7.0469 17.016-7.0469 12.504 2.5352 17.016 7.0469 7.0469 10.633 7.0469 17.016zm-164.06-164.06c6.3828 0 12.504 2.5352 17.016 7.0469s7.0469 10.633 7.0469 17.016-2.5352 12.504-7.0469 17.016-10.633 7.0469-17.016 7.0469-12.504-2.5352-17.016-7.0469-7.0469-10.633-7.0469-17.016 2.5352-12.504 7.0469-17.016 10.633-7.0469 17.016-7.0469zm-7.4141 64.945c4.9336 0.91406 9.9922 0.91406 14.93 0l51.207 123.18-56.012 23.121-49.93-49.93zm-7.3945 153.56-67.508 27.867 27.867-67.508zm-189.57-153.57c10.406 1.9219 21.156-0.21484 30.035-5.9727l19.828 19.84-67.242 27.945zm-40.293 51.328-55.367 22.969 78.379-78.391zm47.797-116.27c6.3828 0 12.504 2.5352 17.016 7.0469s7.0469 10.633 7.0469 17.016-2.5352 12.504-7.0469 17.016-10.633 7.0469-17.016 7.0469-12.504-2.5352-17.016-7.0469-7.0469-10.633-7.0469-17.016 2.5352-12.504 7.0469-17.016 10.633-7.0469 17.016-7.0469zm-164.06 164.06c0-6.3828 2.5352-12.504 7.0469-17.016s10.633-7.0469 17.016-7.0469 12.504 2.5352 17.016 7.0469 7.0469 10.633 7.0469 17.016-2.5352 12.504-7.0469 17.016-10.633 7.0469-17.016 7.0469-12.504-2.5352-17.016-7.0469-7.0469-10.633-7.0469-17.016zm47.73 34.137c6.5781-4.5469 11.699-10.895 14.754-18.285 3.0508-7.3906 3.9023-15.504 2.4531-23.367l41.812-17.367-41.781 100.52zm17.238 87.105 17.5 42.066-24.195 9.9844c-2.8516-4.1172-6.418-7.6914-10.531-10.555zm0 68.219 24.227-9.9961 50.105 120.59-80.469-80.449c5.8438-8.8828 8.0352-19.684 6.1133-30.141zm-64.969 7.4141c0-6.3828 2.5352-12.504 7.0469-17.016s10.633-7.0469 17.016-7.0469 12.504 2.5352 17.016 7.0469 7.0469 10.633 7.0469 17.016-2.5352 12.504-7.0469 17.016-10.633 7.0469-17.016 7.0469-12.504-2.5352-17.016-7.0469-7.0469-10.633-7.0469-17.016zm164.06 164.06c-6.3828 0-12.504-2.5352-17.016-7.0469s-7.0469-10.633-7.0469-17.016 2.5352-12.504 7.0469-17.016 10.633-7.0469 17.016-7.0469 12.504 2.5352 17.016 7.0469 7.0469 10.633 7.0469 17.016-2.5352 12.504-7.0469 17.016-10.633 7.0469-17.016 7.0469zm196.88-48.125c6.3828 0 12.504 2.5352 17.016 7.0469s7.0469 10.633 7.0469 17.016-2.5352 12.504-7.0469 17.016-10.633 7.0469-17.016 7.0469-12.504-2.5352-17.016-7.0469-7.0469-10.633-7.0469-17.016 2.5352-12.504 7.0469-17.016 10.633-7.0469 17.016-7.0469zm-162.74 0.39453c-4.543-6.5781-10.891-11.699-18.281-14.75-7.3867-3.0547-15.5-3.9062-23.359-2.457l-51.207-123.19 34.094-14.078h-0.003906c4.4023-1.8828 6.4688-6.9531 4.6445-11.379-1.8242-4.4258-6.8672-6.5625-11.316-4.7969l-34.137 14.066-24.18-58.188 55.203-132.85 90.188-37.461 73.281 73.281-37.297 90.32-59.488 24.566c-4.4688 1.8477-6.5938 6.9648-4.7461 11.43 1.8438 4.4688 6.9609 6.5938 11.43 4.75l43.391-17.914-62.457 151.22c-1.8398 4.4727 0.29688 9.5898 4.7695 11.43 4.4727 1.8398 9.5898-0.29688 11.43-4.7695l69.07-167.34 90.312-37.285 106.5 106.5h-0.003906c-5.7578 8.8828-7.8945 19.633-5.9727 30.043zm302.74-92.27c-6.3828 0-12.504-2.5352-17.016-7.0469s-7.0469-10.633-7.0469-17.016 2.5352-12.504 7.0469-17.016 10.633-7.0469 17.016-7.0469 12.504 2.5352 17.016 7.0469 7.0469 10.633 7.0469 17.016-2.5352 12.504-7.0469 17.016-10.633 7.0469-17.016 7.0469z"/>
  <path d="m252.07 310.96h-0.10938c-3.875 1.5742-6.0898 5.6719-5.293 9.7773 0.80078 4.1016 4.3906 7.0703 8.5742 7.0781 1.125-0.003906 2.2383-0.22656 3.2812-0.65625h0.10938c4.4727-1.832 6.6133-6.9414 4.7852-11.414-1.832-4.4727-6.9414-6.6172-11.414-4.7852z"/>
  <use x="70" y="576.40625" xlink:href="#s"/>
  <use x="74.011719" y="576.40625" xlink:href="#d"/>
  <use x="76.710938" y="576.40625" xlink:href="#a"/>
  <use x="80.417969" y="576.40625" xlink:href="#j"/>
  <use x="84.109375" y="576.40625" xlink:href="#c"/>
  <use x="86.722656" y="576.40625" xlink:href="#a"/>
  <use x="90.433594" y="576.40625" xlink:href="#i"/>
  <use x="96.25" y="576.40625" xlink:href="#h"/>
  <use x="100.167969" y="576.40625" xlink:href="#g"/>
  <use x="105.636719" y="576.40625" xlink:href="#b"/>
  <use x="109.390625" y="576.40625" xlink:href="#f"/>
  <use x="115.089844" y="576.40625" xlink:href="#a"/>
  <use x="118.800781" y="576.40625" xlink:href="#e"/>
  <use x="122.691406" y="576.40625" xlink:href="#a"/>
  <use x="126.402344" y="576.40625" xlink:href="#r"/>
  <use x="130.039062" y="576.40625" xlink:href="#b"/>
  <use x="70" y="581.875" xlink:href="#q"/>
  <use x="72.378906" y="581.875" xlink:href="#d"/>
  <use x="75.078125" y="581.875" xlink:href="#b"/>
  <use x="78.832031" y="581.875" xlink:href="#f"/>
  <use x="86.4375" y="581.875" xlink:href="#c"/>
  <use x="89.050781" y="581.875" xlink:href="#p"/>
  <use x="92.941406" y="581.875" xlink:href="#a"/>
  <use x="98.554688" y="581.875" xlink:href="#o"/>
  <use x="103.132812" y="581.875" xlink:href="#b"/>
  <use x="106.890625" y="581.875" xlink:href="#n"/>
  <use x="110.785156" y="581.875" xlink:href="#e"/>
  <use x="116.582031" y="581.875" xlink:href="#m"/>
  <use x="120.589844" y="581.875" xlink:href="#d"/>
  <use x="123.285156" y="581.875" xlink:href="#b"/>
  <use x="127.042969" y="581.875" xlink:href="#l"/>
  <use x="128.917969" y="581.875" xlink:href="#a"/>
  <use x="132.625" y="581.875" xlink:href="#k"/>
  <use x="135.867188" y="581.875" xlink:href="#c"/>
 </g>
</svg>
